<?xml version="1.0" encoding="UTF-8" standalone="no"?>
<svg
   xmlns:dc="http://purl.org/dc/elements/1.1/"
   xmlns:cc="http://creativecommons.org/ns#"
   xmlns:rdf="http://www.w3.org/1999/02/22-rdf-syntax-ns#"
   xmlns:svg="http://www.w3.org/2000/svg"
   xmlns="http://www.w3.org/2000/svg"
   xmlns:sodipodi="http://sodipodi.sourceforge.net/DTD/sodipodi-0.dtd"
   xmlns:inkscape="http://www.inkscape.org/namespaces/inkscape"
   viewBox="0 0 64 64"
   version="1.1"
   id="svg10"
   sodipodi:docname="page.svg"
   inkscape:version="0.92.4 5da689c313, 2019-01-14">

  <defs
     id="defs14" />
  <sodipodi:namedview
     pagecolor="#ffffff"
     bordercolor="#666666"
     borderopacity="1"
     objecttolerance="10"
     gridtolerance="10"
     guidetolerance="10"
     inkscape:pageopacity="0"
     inkscape:pageshadow="2"
     inkscape:window-width="1920"
     inkscape:window-height="985"
     id="namedview12"
     showgrid="false"
     inkscape:zoom="3.6875"
     inkscape:cx="32.271186"
     inkscape:cy="32"
     inkscape:window-x="0"
     inkscape:window-y="0"
     inkscape:window-maximized="1"
     inkscape:current-layer="svg10" />
  <path
     fill="#EE8433"
     d="M0 0h64v64H0z"
     id="path2" />
  <path
     fill="#FFF"
     d="M18 15v34a1 1 0 0 0 1 1h26a1 1 0 0 0 1-1V22l-8-8H19a1 1 0 0 0-1 1z"
     id="path4" />
  <path
     d="m 38,21 v -7 l 8,8 h -7 a 1,1 0 0 1 -1,-1 z"
     id="path6"
     inkscape:connector-curvature="0"
     style="opacity:0.6;fill:currentColor;" />
  <path
     d="m 24,42 h 16 v 2 H 24 Z m 0,-4 h 16 v 2 H 24 Z m 0,-8 h 16 v 2 H 24 Z m 0,4 h 16 v 2 H 24 Z"
     id="path8"
     inkscape:connector-curvature="0"
     style="fill:currentColor;" />
</svg>
