<?xml version="1.0" encoding="UTF-8" standalone="no"?>
<svg
   xmlns:dc="http://purl.org/dc/elements/1.1/"
   xmlns:cc="http://creativecommons.org/ns#"
   xmlns:rdf="http://www.w3.org/1999/02/22-rdf-syntax-ns#"
   xmlns:svg="http://www.w3.org/2000/svg"
   xmlns="http://www.w3.org/2000/svg"
   xmlns:sodipodi="http://sodipodi.sourceforge.net/DTD/sodipodi-0.dtd"
   xmlns:inkscape="http://www.inkscape.org/namespaces/inkscape"
   viewBox="0 0 64 64"
   version="1.1"
   id="svg18"
   sodipodi:docname="form.svg"
   inkscape:version="0.92.4 5da689c313, 2019-01-14">
  <metadata
     id="metadata24">
    <rdf:RDF>
      <cc:Work
         rdf:about="">
        <dc:format>image/svg+xml</dc:format>
        <dc:type
           rdf:resource="http://purl.org/dc/dcmitype/StillImage" />
      </cc:Work>
    </rdf:RDF>
  </metadata>
  <defs
     id="defs22" />
  <sodipodi:namedview
     pagecolor="#ffffff"
     bordercolor="#666666"
     borderopacity="1"
     objecttolerance="10"
     gridtolerance="10"
     guidetolerance="10"
     inkscape:pageopacity="0"
     inkscape:pageshadow="2"
     inkscape:window-width="1920"
     inkscape:window-height="985"
     id="namedview20"
     showgrid="false"
     inkscape:snap-nodes="true"
     inkscape:snap-bbox="true"
     inkscape:snap-global="true"
     showguides="true"
     inkscape:snap-bbox-midpoints="true"
     inkscape:object-nodes="true"
     inkscape:snap-intersection-paths="true"
     inkscape:zoom="5.656854"
     inkscape:cx="33.773953"
     inkscape:cy="61.898954"
     inkscape:window-x="0"
     inkscape:window-y="0"
     inkscape:window-maximized="1"
     inkscape:current-layer="svg18"
     inkscape:bbox-nodes="true"
     inkscape:object-paths="true"
     inkscape:snap-smooth-nodes="true"
     inkscape:snap-object-midpoints="true" />
  <path
     d="M 0.09440946,-0.04936579 H 64.094412 V 63.950634 H 0.09440946 Z"
     id="path2"
     inkscape:connector-curvature="0"
     style="fill:#3b7eb0" />
  <path
     d="m 23.085859,13.518478 v 5.970505 h -5.970507 z m 0,0"
     id="path2-3"
     inkscape:connector-curvature="0"
     style="fill:currentColor;stroke-width:0.89872092" />
  <path
     d="m 23.085859,13.518478 v 5.970505 h -5.970507 v 29.85253 H 43.38558 V 13.518478 Z m 0,0"
     id="path4"
     inkscape:connector-curvature="0"
     style="fill:#ffffff;stroke-width:0.07463133" />
  <path
     style="fill:currentColor;stroke-width:0.89872092"
     d="M 49.10796,23.667809 31.356466,41.017335 29.480034,46.9345 35.978208,45.928705 53.534863,28.094711 v -0.247499 c 0,-2.304532 -1.874873,-4.179403 -4.179404,-4.179403 z M 35.75195,44.66781 c -21.292081,10.053656 -10.64604,5.026827 0,0 z m -4.219953,-2.686808 3.531693,3.635257 z"
     id="path24"
     inkscape:connector-curvature="0"
     sodipodi:nodetypes="cccccsscccccc" />
  <path
     style="fill:currentColor;stroke-width:1.35281503"
     inkscape:connector-curvature="0"
     d="m 38.461319,21.048472 c 1.486311,0 2.696162,-1.209851 2.696162,-2.696163 0,-1.486311 -1.209851,-2.696163 -2.696162,-2.696163 -1.486312,0 -2.696164,1.209852 -2.696164,2.696163 0,1.486312 1.209852,2.696163 2.696164,2.696163 z m 0,-3.594885 c 0.494991,0 0.898718,0.403718 0.898718,0.898722 0,0.494993 -0.403727,0.89872 -0.898718,0.89872 -0.495005,0 -0.898723,-0.403727 -0.898723,-0.89872 0,-0.495004 0.403718,-0.898722 0.898723,-0.898722 z m 0,0"
     id="path26" />
  <path
     style="fill:currentColor;stroke-width:1.35281539"
     inkscape:connector-curvature="0"
     d="m 30.975871,21.048472 c 1.486313,0 2.696163,-1.209851 2.696163,-2.696164 0,-1.486311 -1.20985,-2.696162 -2.696163,-2.696162 -1.48631,0 -2.696162,1.209851 -2.696162,2.696162 0,1.486313 1.209852,2.696164 2.696162,2.696164 z m 0,-3.594885 c 0.495005,0 0.898722,0.403719 0.898722,0.898721 0,0.494993 -0.403717,0.898721 -0.898722,0.898721 -0.495003,0 -0.89872,-0.403728 -0.89872,-0.898721 0,-0.495002 0.403717,-0.898721 0.89872,-0.898721 z m 0,0"
     id="path30" />
  <path
     d="M 19.540868,25.301822 H 37.327177 V 27.36888 H 19.540868 Z m 0,0"
     id="path34"
     inkscape:connector-curvature="0"
     style="fill:currentColor;stroke-width:1.09229469" />
  <path
     d="m 19.540868,29.835458 h 14.968031 v 2.06706 H 19.540868 Z m 0,0"
     id="path50"
     inkscape:connector-curvature="0"
     style="fill:currentColor;stroke-width:1.09229517" />
  <path
     style="fill:currentColor;stroke-width:1.09229517"
     d="m 19.540546,34.519497 h 10.93702 v 2.067059 h -10.93702 z m 0,0"
     id="path48-3"
     inkscape:connector-curvature="0" />
  <path
     d="m 19.540546,39.181655 h 8.419431 v 2.067059 h -8.419431 z m 0,0"
     id="path52-7"
     inkscape:connector-curvature="0"
     style="fill:currentColor;stroke-width:1.09229469" />
  <path
     sodipodi:nodetypes="cccccccccc"
     inkscape:connector-curvature="0"
     id="path35"
     d="m 32.812205,41.328129 2.939745,2.946952 16.381105,-16.653329 c 0,0 0.239095,-1.079486 -0.760404,-2.101863 -0.646957,-0.661749 -1.911542,-0.40553 -1.911542,-0.40553 z m -0.837802,1.108253 c -0.453014,1.435086 -0.998629,3.139701 -0.998629,3.139701 l 3.548128,-0.51544 z"
     style="fill:#ffffff;stroke-width:0.04308418" />
</svg>
