<svg width="64mm" height="64mm" version="1.1" viewBox="0 0 64 64" xmlns="http://www.w3.org/2000/svg">
    <g transform="translate(-32.607 -57.527)">
        <rect x="32.607" y="57.527" width="64" height="64" fill="#0b445e" stroke-width=".26458"/>
        <g transform="matrix(1.5717 0 0 1.5717 26.457 53.999)" fill="#fff">
            <path d="m31.684 23.867-2.48 1.441-6.774-11.656c-0.27-0.465-0.113-1.063 0.355-1.336l0.793-0.461c0.465-0.27 1.063-0.113 1.332 0.355z"/>
            <path d="m29.48 25.789 2.48-1.441 1.438 2.469-2.48 1.441z"/>
            <path d="m13.84 28.152 5.988-10.246 2.555 1.492-5.988 10.246z"/>
            <path d="m12.285 33.375 1.234-4.676 2.555 1.496-3.469 3.367c-0.059 0.063-0.156 0.074-0.23 0.031-0.078-0.046-0.113-0.132-0.09-0.218"/>
            <path d="m20.035 17.547 0.863-1.469c0.27-0.469 0.871-0.625 1.336-0.352l0.867 0.508c0.465 0.273 0.621 0.871 0.348 1.336l-0.859 1.473z"/>
            <path d="m33.023 27.578c-0.402 0.23-1.004 0.586-1.359 0.797-0.664 0.395-0.152 1.559 0 1.809 0.859 1.441 1.746 1.238 2.414 2.258 0.367 0.559 0.266 0.805 0.379 0.992 0.047 0.066 0.191 0.133 0.246 0.055 1.031-1.426 0.73-3.879-0.02-4.973-0.347-0.512-0.98-1.325-1.66-0.938"/>
            <path d="m36.637 25.41h-3.563l-1.555-2.855h5.117v2.855z"/>
            <path d="m28.617 25.41h-9.293l1.586-2.855h6.121z"/>
            <path d="m14.945 25.41h-3.617v-2.855h5.309z"/>
        </g>
    </g>
</svg>
