<?xml version="1.0" encoding="UTF-8" standalone="no"?>
<svg
   xmlns:dc="http://purl.org/dc/elements/1.1/"
   xmlns:cc="http://creativecommons.org/ns#"
   xmlns:rdf="http://www.w3.org/1999/02/22-rdf-syntax-ns#"
   xmlns:svg="http://www.w3.org/2000/svg"
   xmlns="http://www.w3.org/2000/svg"
   xmlns:sodipodi="http://sodipodi.sourceforge.net/DTD/sodipodi-0.dtd"
   xmlns:inkscape="http://www.inkscape.org/namespaces/inkscape"
   aria-hidden="true"
   focusable="false"
   viewBox="0 0 16 16"
   version="1.1"
   id="svg6"
   sodipodi:docname="tree-page.svg"
   inkscape:version="0.92.4 5da689c313, 2019-01-14"
   width="1536"
   height="1536">
  <metadata
     id="metadata12">
    <rdf:RDF>
      <cc:Work
         rdf:about="">
        <dc:format>image/svg+xml</dc:format>
        <dc:type
           rdf:resource="http://purl.org/dc/dcmitype/StillImage" />
        <dc:title />
      </cc:Work>
    </rdf:RDF>
  </metadata>
  <defs
     id="defs10" />
  <sodipodi:namedview
     pagecolor="#ffffff"
     bordercolor="#666666"
     borderopacity="1"
     objecttolerance="10"
     gridtolerance="10"
     guidetolerance="10"
     inkscape:pageopacity="0"
     inkscape:pageshadow="2"
     inkscape:window-width="1920"
     inkscape:window-height="985"
     id="namedview8"
     showgrid="false"
     inkscape:zoom="0.65186406"
     inkscape:cx="744.26786"
     inkscape:cy="1411.7296"
     inkscape:window-x="0"
     inkscape:window-y="0"
     inkscape:window-maximized="1"
     inkscape:current-layer="svg6"
     units="px"
     scale-x="1e-05"
     viewbox-width="26.36"
     inkscape:showpageshadow="false"
     inkscape:pagecheckerboard="true" />
  <path
     id="path4"
     style="fill:#ffffff;opacity:1"
     d="M 13.957478,3.8633486 V 4.0526959 H 10.480944 A 0.49664778,0.49664778 0 0 1 9.984296,3.5560479 V 0.07951273 h 0.189346 a 0.74497166,0.74497166 0 0 1 0.527689,0.21728353 l 3.038864,3.04196814 a 0.74186758,0.74186758 0 0 1 0.217283,0.5245842 z M 9.984296,0.07951273 H 2.7829036 A 0.7431092,0.7431092 0 0 0 2.0379319,0.82075954 V 15.227278 A 0.7431092,0.7431092 0 0 0 2.7791787,15.97225 H 13.212506 a 0.7431092,0.7431092 0 0 0 0.744972,-0.741247 V 4.0526959 H 10.480944 A 0.49664778,0.49664778 0 0 1 9.984296,3.5560479 Z" />
  <path
     d="M 13.957478,3.8633486 V 4.0526959 H 10.480944 A 0.49664778,0.49664778 0 0 1 9.984296,3.5560479 V 0.07951273 h 0.189346 a 0.74497166,0.74497166 0 0 1 0.527689,0.21728353 l 3.038864,3.04196824 a 0.74186758,0.74186758 0 0 1 0.217283,0.5245841 z"
     id="path4-6"
     inkscape:connector-curvature="0"
fill="#52575e"/>
</svg>
